<?xml version="1.0" encoding="iso-8859-1"?>
<!-- Generator: Adobe Illustrator 19.0.0, SVG Export Plug-In . SVG Version: 6.00 Build 0)  -->
<svg version="1.1" id="Layer_1" xmlns="http://www.w3.org/2000/svg" xmlns:xlink="http://www.w3.org/1999/xlink" x="0px" y="0px"
	 viewBox="0 0 511.996 511.996" style="enable-background:new 0 0 511.996 511.996;" xml:space="preserve">
<g>
	<g>
		<g>
			<path d="M141.785,225.6c-4.162,4.162-4.162,10.922,0,15.083c4.167,4.167,10.917,4.167,15.088,0
				c4.162-4.162,4.162-10.921,0-15.083C152.702,221.433,145.952,221.433,141.785,225.6z"/>
			<path d="M45.79,300.576c-4.167,4.156-4.167,10.902,0,15.078c4.161,4.166,10.921,4.166,15.083,0
				c4.162-4.176,4.162-10.922,0-15.078C56.711,296.4,49.951,296.4,45.79,300.576z"/>
			<path d="M114.202,374.93c-4.167-4.168-10.917-4.168-15.079,0c-4.171,4.156-4.171,10.922,0,15.078
				c4.162,4.176,10.912,4.176,15.079,0C118.373,385.852,118.373,379.086,114.202,374.93z"/>
			<path d="M184.447,375.232c-4.162,4.168-4.162,10.922,0,15.09c4.167,4.156,10.921,4.156,15.088,0
				c4.162-4.168,4.162-10.922,0-15.09C195.369,371.076,188.614,371.076,184.447,375.232z"/>
			<path d="M211.114,337.9c-4.167,4.176-4.167,10.92,0,15.078c4.171,4.176,10.921,4.176,15.083,0c4.171-4.158,4.171-10.902,0-15.078
				C222.035,333.732,215.285,333.732,211.114,337.9z"/>
			<path d="M511.134,205.507L444.879,50.658c-1.716-4.039-5.765-6.603-10.138-6.461l-148.794,4.755
				c-2.677,0.088-5.216,1.172-7.128,3.049L172.628,156.325c-3.132,3.078-4.064,7.77-2.333,11.804l4.637,10.848l-21.725-8.495
				c-2.5-0.965-5.265-0.965-7.755,0L6.78,224.639c-4.093,1.594-6.78,5.54-6.78,9.927v168.433c0,4.393,2.687,8.324,6.78,9.922
				l138.672,54.156c1.24,0.48,2.559,0.727,3.873,0.727c1.319,0,2.633-0.246,3.883-0.727l138.662-54.156
				c4.098-1.598,6.794-5.529,6.794-9.922v-75.217l96.814-3.098c2.676-0.098,5.215-1.176,7.137-3.049l106.187-104.324
				C511.929,214.232,512.87,209.546,511.134,205.507z M290.79,70.139l117.324-3.75l-83.726,82.265l-117.324,3.75L290.79,70.139z
				 M21.329,250.183l117.333,45.815v145.529L21.329,395.693V250.183z M149.324,277.262L39.981,234.565l109.343-42.691l37.378,14.593
				l20.598,48.162L149.324,277.262z M277.319,395.693l-117.323,45.834V295.998l55.701-21.756l20.843,48.736
				c1.682,3.922,5.549,6.471,9.809,6.471c0.113,0,0.226,0,0.343-0.02l30.627-0.961V395.693z M253.289,307.891L196.05,174.1
				l125.897-4.024l57.235,133.786L253.289,307.891z M398.8,295.469l-57.225-133.782l89.844-88.279l57.225,133.794L398.8,295.469z"/>
			<path d="M310.996,98.188c-5.471-2.196-11.677,0.461-13.862,5.927c-2.206,5.47,0.47,11.681,5.922,13.867
				c5.471,2.196,11.686-0.461,13.872-5.926C319.115,106.585,316.467,100.374,310.996,98.188z"/>
			<path d="M252.104,204.589c-5.47-2.191-11.676,0.461-13.868,5.932c-2.196,5.466,0.461,11.681,5.932,13.867
				c5.466,2.197,11.681-0.46,13.872-5.931C260.231,212.992,257.575,206.781,252.104,204.589z"/>
			<path d="M326.77,281.871c5.471,2.186,11.677-0.471,13.863-5.932c2.205-5.471-0.451-11.682-5.922-13.873
				c-5.471-2.197-11.686,0.461-13.872,5.932C318.653,273.469,321.31,279.664,326.77,281.871z"/>
			<path d="M309.526,203.221c-5.451-2.186-11.677,0.471-13.863,5.941c-2.186,5.462,0.471,11.673,5.941,13.864
				c5.471,2.191,11.666-0.466,13.862-5.937C317.653,211.623,314.995,205.418,309.526,203.221z"/>
			<path d="M277.271,263.43c-5.461-2.191-11.676,0.465-13.862,5.93c-2.197,5.46,0.459,11.687,5.93,13.872
				c5.471,2.188,11.687-0.471,13.873-5.941C285.399,271.83,282.741,265.625,277.271,263.43z"/>
			<path d="M414.761,135.006c-2.186,5.471,0.471,11.671,5.932,13.868c5.471,2.187,11.677-0.471,13.873-5.937
				c2.195-5.46-0.462-11.671-5.932-13.867C423.163,126.883,416.948,129.536,414.761,135.006z"/>
			<path d="M445.869,207.717c5.471,2.186,11.667-0.47,13.872-5.936c2.188-5.471-0.47-11.682-5.94-13.868
				c-5.461-2.196-11.667,0.461-13.872,5.927C437.741,199.31,440.399,205.521,445.869,207.717z"/>
			<path d="M387.997,169.663c-5.471-2.196-11.688,0.461-13.883,5.927c-2.187,5.471,0.471,11.682,5.941,13.877
				c5.471,2.186,11.666-0.47,13.862-5.936C396.114,178.06,393.458,171.85,387.997,169.663z"/>
			<path d="M413.163,228.507c-5.471-2.196-11.686,0.461-13.873,5.926c-2.186,5.471,0.471,11.681,5.941,13.868
				c5.461,2.196,11.667-0.461,13.854-5.932C421.291,236.904,418.634,230.693,413.163,228.507z"/>
			<path d="M420.898,178.796c-5.47-2.187-11.667,0.466-13.872,5.936c-2.187,5.471,0.471,11.681,5.932,13.868
				c5.471,2.196,11.686-0.461,13.882-5.932C429.026,187.203,426.369,180.992,420.898,178.796z"/>
		</g>
	</g>
</g>
<g>
</g>
<g>
</g>
<g>
</g>
<g>
</g>
<g>
</g>
<g>
</g>
<g>
</g>
<g>
</g>
<g>
</g>
<g>
</g>
<g>
</g>
<g>
</g>
<g>
</g>
<g>
</g>
<g>
</g>
</svg>
